# xmcd
#
# Track frame offsets:
#	150
#	16798
#	27511
#	40213
#	54855
#	63259
#	75079
#	88125
#	101621
#	112898
#	126146
#	138541
#	151612
#	166745
#
# Disc length: 2390 seconds
#
# Revision: 1
# Processed by: cddbd v1.5.2PL0 Copyright (c) Steve Scherf et al.
# Submitted via: audiograbber 1.81.03
#
DISCID=9a09540e
DTITLE=Jacque Marie`Jacobs]p[Keith`Merryweather]p[Barb`Holtmann - Worth The Wai
DTITLE=t
DYEAR=2006
DGENRE=Blues
TTITLE0=Let's Talk Dirty In Hawaiin
TTITLE1=Hey Good Looking
TTITLE2=Room Full Of Roses
TTITLE3=Help Me Make Through The Night
TTITLE4=If You've Got The Money Honey
TTITLE5=Bring It On Home
TTITLE6=Your Cheating Heart
TTITLE7=Charlie's Shoes
TTITLE8=Can I Have This Dance
TTITLE9=Honky Tonk Angels
TTITLE10=I Ain't Crazy Enough To Want Your Man
TTITLE11=Frauline
TTITLE12=Coal Miner's Daughter
TTITLE13=Wings Of A Dove
EXTD=
EXTT0=
EXTT1=
EXTT2=
EXTT3=
EXTT4=
EXTT5=
EXTT6=
EXTT7=
EXTT8=
EXTT9=
EXTT10=
EXTT11=
EXTT12=
EXTT13=
PLAYORDER=
